<svg xmlns="http://www.w3.org/2000/svg"  viewBox="0 0 24 24" width="48px" height="48px"><path d="M 6 3 C 4.346 3 3 4.346 3 6 L 3 18 C 3 19.654 4.346 21 6 21 L 18 21 C 19.654 21 21 19.654 21 18 L 21 6 C 21 4.346 19.654 3 18 3 L 6 3 z M 10.267578 8 L 13.732422 8 C 13.899422 8 14.055437 8.0836562 14.148438 8.2226562 L 14.5 9 L 16 9 C 16.552 9 17 9.448 17 10 L 17 15 C 17 15.552 16.552 16 16 16 L 8 16 C 7.448 16 7 15.552 7 15 L 7 10 C 7 9.448 7.448 9 8 9 C 8 8.724 8.224 8.5 8.5 8.5 C 8.776 8.5 9 8.724 9 9 L 9.5 9 L 9.8515625 8.2226562 C 9.9435625 8.0836562 10.099578 8 10.267578 8 z M 12 10 C 10.621 10 9.5 11.121 9.5 12.5 C 9.5 13.879 10.621 15 12 15 C 13.379 15 14.5 13.879 14.5 12.5 C 14.5 11.121 13.379 10 12 10 z M 15.5 10 A 0.5 0.5 0 0 0 15.5 11 A 0.5 0.5 0 0 0 15.5 10 z M 12 11 C 12.827 11 13.5 11.673 13.5 12.5 C 13.5 13.327 12.827 14 12 14 C 11.173 14 10.5 13.327 10.5 12.5 C 10.5 11.673 11.173 11 12 11 z"/></svg>